<?xml version="1.0" encoding="UTF-8"?>
<svg xmlns="http://www.w3.org/2000/svg" xmlns:xlink="http://www.w3.org/1999/xlink" width="24px" height="24px"
     viewBox="0 0 24 24" version="1.1">
    <g id="surface1">
        <path style=" stroke:none;fill-rule:nonzero;fill:rgb(0%,0%,0%);fill-opacity:1;"
              d="M 4.09375 20.054688 L 7.144531 19.039062 L 7.691406 19.304688 C 8.960938 19.921875 10.414062 20.25 12 20.25 C 17.242188 20.25 21 16.503906 21 12 C 21 7.480469 17.269531 3.75 12 3.75 C 6.730469 3.75 3 7.480469 3 12 C 3.007812 13.730469 3.578125 15.410156 4.621094 16.789062 L 5.128906 17.464844 Z M 3.035156 21.988281 C 2.757812 22.082031 2.453125 22.007812 2.25 21.792969 C 2.050781 21.582031 1.992188 21.269531 2.101562 21 L 3.425781 17.691406 C 2.183594 16.050781 1.507812 14.054688 1.5 12 C 1.5 7.027344 5.523438 2.25 12 2.25 C 18.476562 2.25 22.5 7.027344 22.5 12 C 22.5 16.972656 18.433594 21.75 12 21.75 C 10.132812 21.75 8.464844 21.347656 7.039062 20.65625 L 3.03125 21.988281 Z M 3.035156 21.988281 "/>
    </g>
</svg>
